<svg width="1080" height="1080" viewBox="0 0 1080 1080" fill="none" xmlns="http://www.w3.org/2000/svg">
<rect width="1080" height="1080" fill="white"/>
<rect width="1080" height="1080" fill="white"/>
<path d="M895 184H183V896H895V184Z" fill="white"/>
<path d="M762.221 325.466L719.443 328.082L695.691 363.755L738.469 361.14L762.221 325.466Z" fill="#0076C9"/>
<path d="M762.328 584.697L719.553 582.06L695.816 546.374L738.592 549.011L762.328 584.697Z" fill="#0076C9"/>
<path d="M734.594 568.7L709.642 567.162L695.799 546.348L720.751 547.887L734.594 568.7Z" fill="#002056"/>
<path d="M691.269 592.976L677.398 572.182L685.593 548.565L699.464 569.36L691.269 592.976Z" fill="#002056"/>
<path d="M692.531 536.518L717.479 538.088L733.806 519.152L708.858 517.582L692.531 536.518Z" fill="#002056"/>
<path d="M318.906 325.287L361.682 327.925L385.418 363.623L342.643 360.986L318.906 325.287Z" fill="#0076C9"/>
<path d="M539.594 199.199L520.52 237.579L539.59 275.959L558.661 237.579L539.594 199.199Z" fill="#0076C9"/>
<path d="M539.613 231.212L528.489 253.598L539.613 275.984L550.737 253.598L539.613 231.212Z" fill="#002056"/>
<path d="M496.95 256.634L508.043 279.036L532.596 283.726L521.503 261.325L496.95 256.634Z" fill="#002056"/>
<path d="M546.499 283.727L557.591 261.325L582.144 256.634L571.051 279.036L546.499 283.727Z" fill="#002056"/>
<path d="M404.168 376.421V534.163L540.777 613.036L677.386 534.163V376.421L540.777 297.548L404.168 376.421Z" fill="white" stroke="white" stroke-width="2.719" stroke-miterlimit="10"/>
<path d="M402.806 375.63L323.346 455.093L402.806 534.553" fill="#002056"/>
<path d="M678.689 375.595L758.375 455.281L678.689 534.967" fill="#002056"/>
<path d="M402.852 535.058L431.92 643.608L540.469 614.54" fill="#002056"/>
<path d="M540.689 296.088L649.445 266.889L678.645 375.645" fill="#002056"/>
<path d="M541.015 614.352L649.54 643.51L678.698 534.986" fill="#002056"/>
<path d="M402.811 375.63L432.051 266.807L540.758 296.006" fill="#002056"/>
<path d="M734.595 341.249L709.644 342.788L695.801 363.592L720.752 362.053L734.595 341.249Z" fill="#002056"/>
<path d="M691.269 316.298L677.398 337.093L685.593 360.71L699.464 339.915L691.269 316.298Z" fill="#002056"/>
<path d="M692.533 372.754L717.481 371.184L733.807 390.119L708.859 391.689L692.533 372.754Z" fill="#002056"/>
<path d="M346.639 341.3L371.59 342.838L385.433 363.651L360.482 362.113L346.639 341.3Z" fill="#002056"/>
<path d="M389.964 317.024L403.836 337.818L395.641 361.435L381.77 340.641L389.964 317.024Z" fill="#002056"/>
<path d="M388.702 373.482L363.754 371.912L347.427 390.848L372.375 392.418L388.702 373.482Z" fill="#002056"/>
<path d="M638.114 417.931H575.42V460.449" fill="#0076C9"/>
<path d="M442.395 417.786H505.089V460.295" fill="#002056"/>
<path d="M509.556 417.786H504.944V501.234H509.556V417.786Z" fill="#002056"/>
<path d="M575.638 498.245H504.944V517.269H575.638V498.245Z" fill="#002056"/>
<path d="M407.685 737.599H413.156V773.176H433.612V777.988H407.685V737.599ZM440.265 737.599H445.791V777.988H440.265V737.599ZM454.699 737.599H460.033V757.285L479.719 737.599H487.28L470.481 753.875L487.747 777.988H480.626L466.494 757.725L460.033 763.911V777.988H454.699V737.599ZM492.779 737.599H522.225V742.548H498.112V754.81H520.41V759.484H498.112V773.176H522.637V777.988H492.779V737.599ZM545.485 737.599H550.956V773.176H571.411V777.988H545.485V737.599ZM578.065 737.599H583.591V777.988H578.065V737.599ZM609.93 736.499C617.061 736.499 622.339 738.79 625.767 743.373C628.443 746.947 629.781 751.52 629.781 757.092C629.781 763.123 628.251 768.136 625.19 772.131C621.597 776.824 616.474 779.17 609.821 779.17C603.607 779.17 598.722 777.117 595.166 773.011C591.995 769.052 590.41 764.048 590.41 758C590.41 752.537 591.766 747.863 594.479 743.978C597.961 738.992 603.112 736.499 609.93 736.499ZM610.48 774.276C615.301 774.276 618.784 772.553 620.928 769.107C623.091 765.643 624.172 761.665 624.172 757.175C624.172 752.427 622.926 748.606 620.433 745.71C617.959 742.814 614.568 741.366 610.26 741.366C606.081 741.366 602.672 742.805 600.033 745.682C597.393 748.542 596.074 752.767 596.074 758.357C596.074 762.829 597.201 766.605 599.455 769.684C601.728 772.745 605.403 774.276 610.48 774.276ZM636.325 737.599H642.786L663.186 770.317V737.599H668.383V777.988H662.252L641.549 745.297V777.988H636.325V737.599Z" fill="#002056"/>
<path d="M414.004 831.774H417.46L422.577 846.835L427.658 831.774H431.078V849.587H428.786V839.074C428.786 838.71 428.794 838.108 428.81 837.267C428.826 836.426 428.834 835.525 428.834 834.563L423.753 849.587H421.364L416.247 834.563V835.108C416.247 835.545 416.255 836.212 416.271 837.109C416.295 837.999 416.308 838.653 416.308 839.074V849.587H414.004V831.774ZM433.37 831.774H436.183L441.3 840.335L446.418 831.774H449.243L442.513 842.409V849.587H440.1V842.409L433.37 831.774ZM459.005 831.289C462.15 831.289 464.478 832.299 465.99 834.32C467.17 835.897 467.761 837.914 467.761 840.371C467.761 843.031 467.085 845.242 465.735 847.005C464.151 849.074 461.891 850.109 458.957 850.109C456.216 850.109 454.062 849.203 452.493 847.393C451.095 845.646 450.395 843.439 450.395 840.771C450.395 838.362 450.994 836.301 452.19 834.587C453.726 832.388 455.998 831.289 459.005 831.289ZM459.248 847.95C461.374 847.95 462.91 847.19 463.856 845.671C464.81 844.143 465.287 842.388 465.287 840.408C465.287 838.314 464.737 836.628 463.637 835.351C462.546 834.074 461.051 833.435 459.151 833.435C457.307 833.435 455.804 834.07 454.64 835.339C453.475 836.6 452.893 838.463 452.893 840.929C452.893 842.902 453.391 844.567 454.385 845.925C455.387 847.275 457.008 847.95 459.248 847.95ZM470.647 831.774H473.496L482.494 846.204V831.774H484.786V849.587H482.082L472.951 835.169V849.587H470.647V831.774ZM496.294 831.313C497.968 831.313 499.415 831.636 500.636 832.283C502.406 833.213 503.489 834.842 503.885 837.17H501.497C501.206 835.868 500.603 834.922 499.69 834.332C498.776 833.734 497.624 833.435 496.234 833.435C494.584 833.435 493.194 834.053 492.062 835.29C490.938 836.527 490.377 838.37 490.377 840.82C490.377 842.938 490.841 844.664 491.771 845.998C492.701 847.324 494.217 847.987 496.319 847.987C497.927 847.987 499.257 847.522 500.308 846.592C501.367 845.654 501.909 844.143 501.933 842.057H496.355V840.056H504.177V849.587H502.624L502.042 847.296C501.226 848.193 500.502 848.815 499.872 849.163C498.813 849.761 497.467 850.06 495.833 850.06C493.723 850.06 491.909 849.377 490.389 848.011C488.731 846.297 487.903 843.945 487.903 840.953C487.903 837.97 488.711 835.597 490.328 833.835C491.864 832.154 493.853 831.313 496.294 831.313ZM516.667 844.276C516.667 845.78 516.445 846.948 516 847.781C515.175 849.3 513.607 850.06 511.295 850.06C509.961 850.06 508.821 849.701 507.875 848.981C506.929 848.254 506.456 846.964 506.456 845.113V843.839H508.724V845.113C508.724 846.083 508.938 846.815 509.367 847.308C509.803 847.793 510.478 848.035 511.392 848.035C512.677 848.035 513.518 847.595 513.914 846.713C514.157 846.172 514.278 845.149 514.278 843.645V831.774H516.667V844.276ZM520.887 831.774H523.324V849.587H520.887V831.774ZM536.785 831.774V842.784C536.785 844.078 537.027 845.153 537.512 846.01C538.232 847.304 539.445 847.95 541.15 847.95C543.196 847.95 544.586 847.251 545.322 845.852C545.718 845.093 545.916 844.07 545.916 842.784V831.774H548.366V841.778C548.366 843.969 548.071 845.654 547.48 846.835C546.397 848.985 544.352 850.06 541.344 850.06C538.337 850.06 536.296 848.985 535.22 846.835C534.63 845.654 534.335 843.969 534.335 841.778V831.774H536.785ZM552.113 831.774H554.963L563.96 846.204V831.774H566.252V849.587H563.548L554.417 835.169V849.587H552.113V831.774ZM570.606 831.774H573.043V849.587H570.606V831.774ZM578.379 831.774L583.496 846.944L588.553 831.774H591.257L584.757 849.587H582.199L575.711 831.774H578.379ZM593.767 831.774H606.755V833.956H596.12V839.365H605.955V841.426H596.12V847.465H606.937V849.587H593.767V831.774ZM618.384 839.935C619.516 839.935 620.409 839.708 621.064 839.256C621.727 838.803 622.059 837.986 622.059 836.806C622.059 835.537 621.598 834.672 620.676 834.211C620.183 833.968 619.524 833.847 618.7 833.847H612.806V839.935H618.384ZM610.393 831.774H618.639C619.997 831.774 621.117 831.972 621.998 832.368C623.672 833.128 624.508 834.53 624.508 836.576C624.508 837.643 624.286 838.516 623.841 839.195C623.405 839.874 622.79 840.42 621.998 840.832C622.693 841.115 623.215 841.487 623.562 841.948C623.918 842.409 624.116 843.156 624.157 844.191L624.241 846.58C624.266 847.259 624.322 847.764 624.411 848.096C624.557 848.662 624.815 849.026 625.187 849.187V849.587H622.228C622.148 849.434 622.083 849.236 622.034 848.993C621.986 848.751 621.945 848.282 621.913 847.587L621.768 844.616C621.711 843.451 621.279 842.671 620.47 842.275C620.009 842.057 619.286 841.948 618.299 841.948H612.806V849.587H610.393V831.774ZM629.626 843.839C629.682 844.85 629.921 845.671 630.341 846.301C631.141 847.481 632.552 848.072 634.573 848.072C635.479 848.072 636.303 847.942 637.047 847.684C638.486 847.182 639.206 846.285 639.206 844.992C639.206 844.021 638.902 843.33 638.296 842.918C637.682 842.514 636.72 842.162 635.41 841.863L632.997 841.317C631.42 840.961 630.305 840.569 629.65 840.141C628.518 839.397 627.952 838.286 627.952 836.806C627.952 835.205 628.506 833.892 629.614 832.865C630.721 831.838 632.289 831.325 634.319 831.325C636.186 831.325 637.771 831.778 639.072 832.683C640.382 833.58 641.037 835.019 641.037 837H638.769C638.648 836.046 638.389 835.315 637.993 834.805C637.257 833.876 636.008 833.411 634.246 833.411C632.823 833.411 631.8 833.71 631.178 834.308C630.555 834.906 630.244 835.602 630.244 836.394C630.244 837.267 630.608 837.906 631.335 838.31C631.812 838.568 632.892 838.892 634.573 839.28L637.071 839.85C638.276 840.125 639.206 840.501 639.86 840.978C640.992 841.81 641.558 843.019 641.558 844.603C641.558 846.576 640.839 847.987 639.4 848.836C637.969 849.684 636.303 850.109 634.403 850.109C632.188 850.109 630.454 849.543 629.201 848.411C627.948 847.287 627.334 845.764 627.358 843.839H629.626ZM645.16 831.774H647.597V849.587H645.16V831.774ZM664.489 831.774V833.896H658.487V849.587H656.037V833.896H650.035V831.774H664.489ZM665.326 831.774H668.14L673.257 840.335L678.374 831.774H681.2L674.47 842.409V849.587H672.056V842.409L665.326 831.774Z" fill="#002056"/>
<path d="M387.472 806.641H693.035" stroke="#002056" stroke-width="4.96703" stroke-miterlimit="10" stroke-linecap="round"/>
<path d="M318.181 584.697L360.956 582.06L384.693 546.374L341.917 549.011L318.181 584.697Z" fill="#0076C9"/>
<path d="M345.914 568.7L370.865 567.162L384.709 546.348L359.757 547.887L345.914 568.7Z" fill="#002056"/>
<path d="M389.239 592.976L403.11 572.182L394.915 548.565L381.044 569.36L389.239 592.976Z" fill="#002056"/>
<path d="M387.977 536.518L363.029 538.088L346.702 519.152L371.65 517.582L387.977 536.518Z" fill="#002056"/>
<path d="M539.594 711.071L520.52 672.691L539.591 634.311L558.661 672.691L539.594 711.071Z" fill="#0076C9"/>
<path d="M539.613 679.055L528.489 656.668L539.613 634.282L550.737 656.668L539.613 679.055Z" fill="#002056"/>
<path d="M496.95 653.636L508.043 631.234L532.596 626.543L521.503 648.945L496.95 653.636Z" fill="#002056"/>
<path d="M546.499 626.543L557.591 648.945L582.144 653.636L571.051 631.234L546.499 626.543Z" fill="#002056"/>
<rect x="20.5" y="19.5" width="1041" height="1041" stroke="#002056" stroke-width="5"/>
</svg>
